<?xml version="1.0" encoding="utf-8"?>
<!-- Generator: Adobe Illustrator 16.0.0, SVG Export Plug-In . SVG Version: 6.00 Build 0)  -->
<!DOCTYPE svg PUBLIC "-//W3C//DTD SVG 1.1//EN" "http://www.w3.org/Graphics/SVG/1.1/DTD/svg11.dtd">
<svg version="1.1" id="Layer_1" xmlns="http://www.w3.org/2000/svg" xmlns:xlink="http://www.w3.org/1999/xlink" x="0px" y="0px"
	 width="252.102px" height="252.102px" viewBox="0 0 100 100"
	 xml:space="preserve">
<path fill="#231815" d="M250.911,117.952c-0.708-11.526-2.679-22.942-6.393-33.898c-0.24-0.709-0.489-1.441-0.739-2.173
	c-0.014-0.029-0.032-0.052-0.045-0.081c-0.35-0.808-0.68-1.613-0.967-2.444c-0.043-0.125-0.069-0.209-0.085-0.271
	c-1.157-1.2-1.819-2.72-1.581-4.318c-0.851-1.2-1.711-2.396-2.367-3.717c-0.092-0.185-0.154-0.377-0.226-0.567
	c-0.272-0.353-0.488-0.715-0.644-1.083c-2.9-3.126-5.425-6.608-7.047-10.434c-0.018-0.041-0.023-0.081-0.04-0.122
	c-0.599-0.994-1.15-2.019-1.678-3.088c-0.449-0.911-0.888-1.83-1.396-2.697c-0.037-0.025-0.066-0.055-0.104-0.079
	c-0.55-0.531-0.92-1.099-1.163-1.678c-0.142-0.163-0.266-0.337-0.42-0.49c-0.382-0.377-0.677-0.773-0.906-1.178
	c-0.572-0.448-1.132-0.91-1.628-1.421c-1.782-1.838-3.25-3.936-4.688-6.05c-0.382-0.302-0.74-0.667-1.06-1.113
	c-3.78-5.266-9.471-8.986-14.468-12.988c-0.519-0.416-1.062-0.803-1.59-1.208c-1.647-1.004-3.289-1.987-4.879-2.979
	c-3.621-2.26-7.109-4.622-10.682-6.833c-5.216-2.657-10.625-4.733-16.013-7.028c-4.466-1.902-9.179-3.924-14.012-4.923
	c-0.437-0.031-0.841-0.108-1.208-0.236c-0.857-0.145-1.717-0.262-2.581-0.329c-0.934-0.072-1.728-0.352-2.39-0.768h-17.013
	c0,0-20,1-41,24s-30,48.5-30,48.5s4-3,14,3c1.904,1.143,3.771,2.156,5.547,3.052c-1.016,4.714-2.038,11.537-0.88,18.198
	c1.32,7.591,1.978,13.435,1.272,18.69c-2.582,0.363-5.189,0.06-5.189,0.06s1.436,1.646,4.609,2.974
	c-0.405,1.616-0.955,3.197-1.692,4.776c-3.5,7.5-18,21.5-18,21.5s1.741,3.592,5.25,5.25c4.583,2.168,9,3.25,8.75,7.5
	s-4.667,5-4.667,5s2,9,9.167,10.75c0.823,0.201,1.665,0.283,2.486,0.293c-0.919,0.311-1.673,0.705-1.986,1.207
	c-2.333,3.75-2.25,8.25-2.25,8.25s8.25-1,11.5,7s-2.25,22.75-2.25,22.75s2.999-3.25,5.167-13.416
	c1.551-7.277-0.834-13.5-3.668-16.166c-2.832-2.668-6.5-2.334-6.5-2.334s0.168-2.666,3-5.166c2.809-2.479,6.5-2.834,6.5-2.834
	s-7.916-1.084-12.5-4.834c-2.371-1.939-4-4.332-4-4.332s1.834-1.334,2.668-5c0.826-3.635-1-5.668-3.5-7.668
	c-1.518-1.213-4.501-1.832-6.668-2.832c-2.166-1-3.43-3.07-3.166-3.334c2.5-2.5,13.512-11.813,18.834-23.167
	c0.297-0.634,0.533-1.37,0.725-2.176c2.267,0.526,5.054,0.804,8.441,0.509c8.731-0.759,13.5-1,17.75-0.25s7.75,1.75,7.75,1.75
	s-3.5-3.75-11.75-4.75c-7.197-0.872-15.25,0.5-16-2.25s-2.924-13.4,4.5-14.5c6.75-1,19,7.75,19,7.75s-7.75-9.75-16-12.25
	s-12.75-1.25-12.25,2.75s2.25,10.75,0.75,14.5c-0.295,0.738-0.867,1.287-1.587,1.701c0.228-5.691-0.589-12.642-0.997-17.451
	c-0.518-6.112,0.832-12.416,1.928-16.313c5.242,2.291,8.906,3.313,8.906,3.313s6.5-20,13.5-34.5s14-24.5,14-24.5s-8.5,16-13,29.5
	s-9,29.5-9,29.5s6.5-3,15,3s16.5,2.5,16.5,2.5s1.972,25.104-9,66c-11,41-47,71-47,71s16.235-8.264,35.5,11
	c5.4,5.402,13.603,8.078,21.5,9.35v0.15h0.991c0.011,0.002,0.021,0.003,0.032,0.004c8.483-0.911,16.887-1.529,25.051-4.308
	c0.224-0.076,0.441-0.132,0.655-0.178c3.068-1.547,6.219-2.85,9.595-3.572c0.768-0.164,1.64-0.183,2.535-0.187
	c0.516-0.457,1.165-0.827,1.965-1.063c1.358-0.401,2.638-0.932,3.878-1.53c1.867-1.351,3.836-2.404,5.886-3.329
	c1.287-0.778,2.582-1.551,3.928-2.257c3.779-1.982,7.863-3.721,10.851-6.848c1.039-1.088,2.219-1.532,3.362-1.524
	c1.336-1.347,2.738-2.614,4.39-3.641c3.434-2.135,6.177-4.052,8.937-7.042c5.071-5.495,9.449-11.264,14.042-17.132
	c0.286-0.365,0.584-0.735,0.887-1.107c0.114-0.957,0.543-1.923,1.382-2.804c3.199-3.356,4.826-7.863,7.205-11.793
	c0.211-0.7,0.546-1.259,0.958-1.702c0.181-0.796,0.557-1.564,1.178-2.236c-0.078-1.353,0.368-2.676,1.409-3.769
	c1.65-1.731,1.323-5.367,2.214-7.544c1.193-2.916,2.666-5.852,3.385-8.935c1.659-7.114,1.189-14.602,2.365-21.815
	c0.184-1.126,0.641-1.962,1.257-2.55C251.367,128.535,251.231,123.17,250.911,117.952z"/>
<path fill="none" stroke="#231815" stroke-width="4" stroke-miterlimit="10" d="M126.051,2C57.54,2,2,57.54,2,126.051
	c0,68.512,55.54,124.051,124.051,124.051c12.719,0,24.989-1.918,36.542-5.474c1.718-0.717,3.478-1.322,5.299-1.768
	c47.923-17.169,82.21-62.98,82.21-116.81C250.102,57.54,194.562,2,126.051,2z"/>
</svg>
